<?xml version="1.0" encoding="UTF-8" standalone="no"?>
<!-- Created with Inkscape (http://www.inkscape.org/) -->

<svg
   version="1.1"
   id="svg2"
   width="1122.52"
   height="793.70667"
   viewBox="0 0 1122.52 793.70667"
   sodipodi:docname="LOGO.ai"
   xmlns:inkscape="http://www.inkscape.org/namespaces/inkscape"
   xmlns:sodipodi="http://sodipodi.sourceforge.net/DTD/sodipodi-0.dtd"
   xmlns="http://www.w3.org/2000/svg"
   xmlns:svg="http://www.w3.org/2000/svg">
  <defs
     id="defs6">
    <clipPath
       clipPathUnits="userSpaceOnUse"
       id="clipPath16">
      <path
         d="M 0,595.28 H 841.89 V 0 H 0 Z"
         id="path14" />
    </clipPath>
  </defs>
  <sodipodi:namedview
     id="namedview4"
     pagecolor="#ffffff"
     bordercolor="#000000"
     borderopacity="0.25"
     inkscape:showpageshadow="2"
     inkscape:pageopacity="0.0"
     inkscape:pagecheckerboard="0"
     inkscape:deskcolor="#d1d1d1" />
  <g
     id="g8"
     inkscape:groupmode="layer"
     inkscape:label="LOGO"
     transform="matrix(1.3333333,0,0,-1.3333333,0,793.70667)">
    <g
       id="g10">
      <g
         id="g12"
         clip-path="url(#clipPath16)">
        <g
           id="g18"
           transform="translate(177.7358,278.8369)">
          <path
             d="m 0,0 v 17.014 c -0.079,1.18 -1.066,2.117 -2.26,2.117 l 0.052,0.033 c -6.615,0.149 -12.655,0.815 -17.535,1.834 -0.452,0.088 -1.056,0.068 -1.325,-0.384 -0.285,-0.48 -0.153,-0.843 0,-1.414 0.157,-0.577 0.873,-2.983 0.873,-2.983 0.467,-2.024 3.169,-2.509 4.888,-2.877 l 7.695,-1.668 C -3.899,10.874 -2.89,7.992 -2.89,4.187 V 0.836 L -2.894,0.811 c 0,-2.967 -0.488,-4.88 -2.461,-4.967 -2.495,-0.117 -4.313,2.372 -5.283,4.534 -0.026,0.049 -0.051,0.092 -0.066,0.138 l -0.031,0.071 c -0.086,0.192 -0.157,0.383 -0.228,0.563 -0.655,1.624 -2.128,5.2 -2.128,5.2 0,0 -0.193,0.644 -0.503,0.853 -0.309,0.219 -0.594,0.295 -0.974,0.295 h -2.6 l 3.356,-11.627 c 0.686,-2.386 1.524,-5.136 3.407,-6.887 2.316,-2.176 6.083,-3.351 11.085,-3.351 5.005,0 8.78,1.175 11.091,3.351 1.878,1.751 2.721,4.501 3.412,6.887 L 18.535,7.498 H 15.93 C 15.546,7.498 15.265,7.422 14.955,7.203 14.65,6.994 14.457,6.35 14.457,6.35 c 0,0 -1.467,-3.576 -2.128,-5.2 C 12.263,0.97 12.185,0.779 12.096,0.587 L 12.073,0.516 C 12.05,0.47 12.035,0.427 12.014,0.378 11.029,-1.784 9.211,-4.273 6.713,-4.156 c -1.965,0.087 -2.453,2 -2.458,4.967 v 0.025 3.351 c 0,3.805 1.008,6.687 4.728,7.485 l 7.683,1.668 c 1.726,0.368 4.433,0.853 4.89,2.877 0,0 0.711,2.406 0.878,2.983 0.152,0.571 0.28,0.934 0,1.414 -0.271,0.452 -0.873,0.472 -1.325,0.384 C 16.224,19.979 10.187,19.313 3.57,19.164 l 0.058,-0.033 c -1.195,0 -2.181,-0.937 -2.27,-2.117 L 1.358,0 C 1.358,-0.378 1.056,-0.687 0.68,-0.687 0.31,-0.687 0,-0.378 0,0"
             style="fill:#ed6d00;fill-opacity:1;fill-rule:nonzero;stroke:none"
             id="path20" />
        </g>
        <g
           id="g22"
           transform="translate(178.8125,365.9971)">
          <path
             d="m 0,0 c 0,0 -5.228,-2.913 -7.099,-6.855 -0.797,-1.666 -0.34,-2.732 2.682,-0.869 4.295,2.654 8.177,4.652 12.791,6.282 C 13.452,0.36 22.77,2.544 23.44,2.219 23.713,2.086 23.729,1.564 23.196,1.071 10.003,-11.047 8.582,-20.078 12.177,-21.505 c 1.777,-0.703 4.776,-0.295 7.449,0.581 2.671,0.874 5.281,1.998 8.272,2.092 7.038,0.219 9.991,-13.131 2.387,-25.783 -4.261,-7.088 -15.615,-16.112 -16.428,-15.777 -0.365,0.142 -0.482,0.543 -0.33,1.199 0.107,0.431 4.182,9.399 0.955,10.821 -0.503,0.223 -1.764,-0.135 -2.961,-2.981 -1.538,-3.676 -2.721,-4.357 -3.355,-4.205 -0.633,0.153 -0.407,1.171 -0.306,1.859 0.097,0.69 0.24,1.26 -0.141,1.015 -0.381,-0.248 -4.002,-4.336 -5.15,-4.239 -0.405,0.038 -0.665,0.469 -0.401,1.081 0.259,0.602 0.533,1.422 0.533,1.422 0,0 -6.25,-6.073 -13.886,-7.528 -0.571,-0.109 -2.094,-0.48 -2.577,-0.221 -0.251,0.132 -0.446,0.769 0.052,1.099 0.492,0.333 8.581,4.52 12.08,10.413 1.056,1.789 1.087,2.701 0.802,3.174 -0.701,1.215 -4.148,0.017 -6.413,-0.945 -2.265,-0.968 -5.657,-2.938 -9.968,-3.672 -5.347,-0.909 -11.725,0.711 -15.016,4.814 -3.795,4.735 -4.031,9.392 -3.493,14.117 1.691,14.797 15.838,24.186 20.748,27.207 5.924,3.647 14.714,7.445 15.391,7.173 C 0.767,1.071 0.919,0.543 0,0"
             style="fill:#ed6d00;fill-opacity:1;fill-rule:nonzero;stroke:none"
             id="path24" />
        </g>
        <g
           id="g26"
           transform="translate(287.353,333.1226)">
          <path
             d="m 0,0 v -34.911 c 0,-8.304 0.213,-12.04 2.666,-15.3 2.462,-3.361 6.738,-4.953 10.907,-4.953 3.951,0 9.293,1.592 11.644,6.068 1.599,2.709 2.351,5.603 2.351,14.277 V 0 h 9.298 v -35.099 c 0,-4.387 1.924,-27.441 -25.863,-27.441 -3.95,0 -16.137,0.469 -22.113,11.02 -2.143,3.732 -2.575,8.027 -2.575,15.025 l 0,36.495 z"
             style="fill:#09393c;fill-opacity:1;fill-rule:nonzero;stroke:none"
             id="path28" />
        </g>
        <g
           id="g30"
           transform="translate(364.6187,324.8179)">
          <path
             d="m 0,0 c -3.524,1.213 -6.728,2.145 -10.902,2.145 -6.729,0 -10.473,-3.077 -10.473,-7.282 0,-2.988 1.926,-5.786 8.441,-10.079 l 4.276,-2.895 c 8.978,-5.971 15.066,-10.356 15.066,-18.948 0,-9.609 -8.541,-17.171 -22.114,-17.171 -7.917,0 -14.315,2.839 -17.844,4.42 l -0.005,8.085 4.166,-2.052 c 3.958,-1.775 8.118,-3.453 13.358,-3.453 7.053,0 10.26,3.921 10.26,7.649 0,4.018 -3.207,6.63 -9.402,10.831 l -4.276,2.987 c -7.581,5.037 -14.101,10.27 -14.101,18.57 0,9.153 9.186,16.336 22.008,16.336 5.367,0 9.782,-0.97 13.182,-2.184 l 0.01,-7.716 z"
             style="fill:#09393c;fill-opacity:1;fill-rule:nonzero;stroke:none"
             id="path32" />
        </g>
        <g
           id="g34"
           transform="translate(261.8872,324.8179)">
          <path
             d="m 0,0 c -3.524,1.213 -6.729,2.145 -10.897,2.145 -6.733,0 -10.477,-3.077 -10.477,-7.282 0,-2.988 1.925,-5.786 8.446,-10.079 l 4.275,-2.895 c 8.973,-5.971 15.067,-10.356 15.067,-18.948 0,-9.609 -8.552,-17.171 -22.121,-17.171 -7.916,0 -14.314,2.839 -17.843,4.42 l -0.005,8.085 4.169,-2.052 c 3.955,-1.775 8.12,-3.453 13.36,-3.453 7.053,0 10.252,3.921 10.252,7.649 0,4.018 -3.199,6.63 -9.399,10.831 l -4.276,2.987 c -7.586,5.037 -14.101,10.27 -14.101,18.57 0,9.153 9.186,16.336 22.013,16.336 5.362,0 9.785,-0.97 13.183,-2.184 L 1.65,-0.757 Z"
             style="fill:#09393c;fill-opacity:1;fill-rule:nonzero;stroke:none"
             id="path36" />
        </g>
        <g
           id="g38"
           transform="translate(422.5879,333.1226)">
          <path
             d="M 0,0 V -6.998 H -18.377 V -61.6 H -31.95 V -6.998 H -50.438 V 0 Z"
             style="fill:#09393c;fill-opacity:1;fill-rule:nonzero;stroke:none"
             id="path40" />
        </g>
        <g
           id="g42"
           transform="translate(430.0381,287.9287)">
          <path
             d="m 0,0 c 0.187,-2.731 0.944,-5.458 2.873,-7.487 2.064,-2.161 4.864,-2.878 7.779,-2.878 3.956,0 7.47,1.299 10.609,3.703 l 1.376,1.052 v -7.876 l -0.366,-0.26 c -3.803,-2.693 -8.554,-3.525 -13.126,-3.525 -4.983,0 -9.508,1.46 -12.863,5.25 -3.504,3.953 -4.6,9.178 -4.6,14.337 0,5.322 1.442,10.242 5.024,14.248 3.357,3.753 7.568,5.667 12.607,5.667 4.553,0 8.667,-1.356 11.709,-4.839 3.209,-3.676 4.189,-8.551 4.189,-13.303 l 0,-4.089 z m 60.213,-14.659 c -3.168,-1.903 -6.778,-2.612 -10.441,-2.612 -5.097,0 -9.663,1.563 -13.207,5.297 -3.57,3.767 -5.002,8.465 -5.002,13.609 0,5.571 1.479,10.786 5.374,14.904 3.838,4.067 8.85,5.692 14.38,5.692 3.041,0 6.129,-0.474 8.871,-1.853 l 0.467,-0.236 v -8.541 l -1.361,1.003 c -2.382,1.747 -5.023,2.635 -7.977,2.635 -3.276,0 -6.084,-1.071 -8.293,-3.516 -2.402,-2.654 -3.219,-6.056 -3.219,-9.563 0,-3.312 0.711,-6.677 3.011,-9.18 2.168,-2.348 4.987,-3.255 8.14,-3.255 3.088,0 5.84,1.076 8.302,2.905 l 1.366,1.017 v -8.055 z m 15.696,31.746 c 2.752,3.357 6.418,5.144 11.05,5.144 9.698,0 13.034,-6.677 13.034,-15.568 V -16.422 H 91.915 V 5.19 c 0,5.121 -1.26,10.049 -7.236,10.049 -2.534,0 -4.585,-0.97 -6.237,-2.889 C 76.62,10.237 75.909,7.663 75.909,4.901 v -21.323 h -8.104 v 55.141 h 8.104 z M 17.076,6.835 c -0.114,2.194 -0.639,4.459 -2.087,6.154 -1.491,1.745 -3.519,2.385 -5.779,2.385 -2.377,0 -4.33,-0.896 -5.99,-2.585 C 1.581,11.121 0.619,9.069 0.131,6.835 Z"
             style="fill:#09393c;fill-opacity:1;fill-rule:nonzero;stroke:none"
             id="path44" />
        </g>
        <g
           id="g46"
           transform="translate(553.8271,329.9766)">
          <path
             d="M 0,0 V 0 C -0.071,0.815 -0.396,1.445 -0.965,1.887 -1.528,2.333 -2.29,2.552 -3.25,2.552 -4.235,2.552 -4.982,2.359 -5.495,1.983 -6.002,1.6 -6.262,1.039 -6.262,0.312 c 0,-0.502 0.168,-0.875 0.509,-1.122 0.345,-0.243 1.025,-0.492 2.051,-0.731 l 2.255,-0.538 C -0.243,-2.366 0.619,-2.785 1.132,-3.352 1.655,-3.91 1.914,-4.7 1.914,-5.72 c 0,-1.173 -0.446,-2.1 -1.331,-2.788 -0.893,-0.688 -2.092,-1.031 -3.615,-1.031 -1.68,0 -3.001,0.396 -3.95,1.186 -0.924,0.779 -1.386,1.849 -1.386,3.202 v 0.096 h 1.598 c 0.037,-0.939 0.371,-1.66 1.026,-2.168 0.651,-0.513 1.554,-0.767 2.718,-0.767 1.076,0 1.893,0.185 2.447,0.559 0.554,0.36 0.838,0.906 0.838,1.624 0,0.62 -0.189,1.082 -0.554,1.385 -0.36,0.288 -1.097,0.57 -2.199,0.832 l -2.259,0.541 c -1.133,0.269 -1.945,0.642 -2.433,1.124 -0.482,0.481 -0.726,1.146 -0.726,1.994 0,1.242 0.417,2.222 1.26,2.948 0.842,0.723 1.974,1.086 3.407,1.086 1.452,0 2.604,-0.363 3.468,-1.094 C 1.081,2.28 1.549,1.28 1.604,0 Z m 8.227,-9.43 c -1.301,0 -2.352,0.457 -3.16,1.374 -0.807,0.914 -1.208,2.118 -1.208,3.598 0,1.49 0.401,2.688 1.208,3.607 0.808,0.914 1.859,1.372 3.16,1.372 1.309,0 2.371,-0.458 3.172,-1.372 0.803,-0.919 1.205,-2.117 1.205,-3.607 0,-1.48 -0.402,-2.684 -1.205,-3.598 C 10.598,-8.973 9.536,-9.43 8.227,-9.43 m 0,1.364 c 0.832,0 1.492,0.33 1.979,0.98 0.498,0.65 0.736,1.523 0.736,2.628 0,1.104 -0.238,1.98 -0.736,2.635 -0.487,0.65 -1.147,0.978 -1.979,0.978 -0.834,0 -1.495,-0.328 -1.982,-0.978 -0.492,-0.655 -0.731,-1.531 -0.731,-2.635 0,-1.105 0.239,-1.978 0.731,-2.628 0.487,-0.65 1.148,-0.98 1.982,-0.98 m 8.286,8.3 v -6.066 c 0,-0.784 0.152,-1.361 0.458,-1.706 0.299,-0.348 0.796,-0.528 1.481,-0.528 0.757,0 1.361,0.299 1.803,0.883 0.447,0.592 0.666,1.387 0.666,2.4 v 5.017 h 0.792 0.792 v -9.412 h -0.746 -0.762 v 1.432 c -0.101,-0.171 -0.219,-0.33 -0.351,-0.483 -0.67,-0.802 -1.513,-1.201 -2.524,-1.201 -1.066,0 -1.862,0.267 -2.396,0.801 -0.534,0.537 -0.797,1.33 -0.797,2.401 v 6.462 h 0.793 z m 12.299,-9.392 c -0.543,-0.086 -0.94,-0.122 -1.184,-0.122 -0.69,0 -1.183,0.147 -1.467,0.452 -0.284,0.305 -0.427,0.83 -0.427,1.577 v 6.208 h -1.299 v 1.277 h 1.299 v 2.627 h 1.579 V 0.234 h 1.499 v -1.277 h -1.499 v -6.206 c 0,-0.21 0.087,-0.38 0.255,-0.497 0.167,-0.127 0.39,-0.193 0.675,-0.193 h 0.569 z m 2.01,-0.02 V 3.74 h 0.792 0.793 v -4.773 l 0.274,0.35 c 0.68,0.802 1.539,1.204 2.57,1.204 1.036,0 1.832,-0.282 2.396,-0.846 0.559,-0.564 0.843,-1.363 0.843,-2.399 v -6.454 h -0.792 -0.792 v 6.058 c 0,0.782 -0.153,1.341 -0.447,1.685 -0.3,0.346 -0.782,0.514 -1.452,0.514 -0.797,0 -1.433,-0.287 -1.9,-0.864 -0.467,-0.581 -0.7,-1.363 -0.7,-2.349 v -5.044 h -0.793 z m 14.31,-0.252 c -1.33,0 -2.376,0.422 -3.138,1.263 -0.762,0.853 -1.142,2.016 -1.142,3.503 0,1.584 0.406,2.846 1.209,3.781 0.801,0.936 1.883,1.404 3.249,1.404 1.223,0 2.219,-0.462 2.97,-1.374 0.762,-0.917 1.133,-2.12 1.133,-3.605 l -0.016,-0.566 h -6.86 c 0.067,-0.937 0.279,-1.645 0.645,-2.141 0.442,-0.596 1.143,-0.901 2.102,-0.901 0.6,0 1.128,0.17 1.579,0.51 0.452,0.343 0.727,0.769 0.824,1.293 h 1.569 C 49.017,-7.294 48.549,-8.076 47.849,-8.615 47.143,-9.158 46.244,-9.43 45.132,-9.43 m 2.646,5.69 v 0 c -0.05,0.869 -0.269,1.549 -0.655,2.032 -0.422,0.535 -1.052,0.802 -1.879,0.802 -0.833,0 -1.498,-0.302 -1.996,-0.927 -0.392,-0.485 -0.63,-1.125 -0.711,-1.907 z m 4.22,-5.438 v 9.412 h 0.741 0.762 v -1.608 c 0.137,0.249 0.278,0.483 0.432,0.687 0.593,0.806 1.33,1.208 2.203,1.208 0.148,0 0.295,-0.031 0.447,-0.076 V -1.18 l -0.324,0.007 c -0.86,0 -1.52,-0.259 -1.977,-0.769 -0.472,-0.508 -0.7,-1.239 -0.7,-2.192 V -9.178 H 52.79 Z m 6.246,0 v 9.412 h 0.745 0.762 v -1.379 l 0.346,0.462 c 0.685,0.802 1.544,1.204 2.574,1.204 1.036,0 1.834,-0.282 2.397,-0.846 0.559,-0.564 0.837,-1.363 0.837,-2.399 v -6.454 h -0.792 -0.791 v 5.918 c 0,0.825 -0.158,1.425 -0.472,1.79 -0.326,0.366 -0.838,0.549 -1.549,0.549 -0.762,0 -1.361,-0.287 -1.808,-0.864 -0.447,-0.581 -0.666,-1.363 -0.666,-2.349 v -5.044 h -0.791 z m 24.897,4.732 c 0,-1.594 -0.453,-2.848 -1.346,-3.737 -0.899,-0.906 -2.138,-1.356 -3.732,-1.356 -1.662,0 -2.92,0.435 -3.789,1.3 -0.868,0.864 -1.305,2.128 -1.305,3.793 V 3.74 h 0.868 0.885 v -8.053 c 0,-1.202 0.283,-2.118 0.847,-2.745 0.569,-0.62 1.402,-0.932 2.494,-0.932 1.085,0 1.919,0.312 2.483,0.932 0.568,0.627 0.848,1.543 0.848,2.745 V 3.74 h 0.868 0.879 z m 3.047,-4.732 v 9.412 h 0.747 0.76 v -1.379 l 0.351,0.462 c 0.681,0.802 1.538,1.204 2.564,1.204 1.04,0 1.838,-0.282 2.397,-0.846 0.563,-0.564 0.843,-1.363 0.843,-2.399 v -6.454 h -0.792 -0.787 v 5.918 c 0,0.825 -0.163,1.425 -0.478,1.79 -0.325,0.366 -0.838,0.549 -1.549,0.549 -0.766,0 -1.366,-0.287 -1.807,-0.864 -0.447,-0.581 -0.666,-1.363 -0.666,-2.349 v -5.044 h -0.792 z m 10.531,0 v 9.412 h 0.792 0.792 V -9.178 H 97.511 Z M 96.698,3.755 h 1.62 V 1.96 h -1.62 z m 3.407,-3.521 v 0 h 0.925 0.924 l 2.519,-7.703 2.604,7.703 h 0.868 0.874 l -3.504,-9.412 h -0.842 -0.854 z m 14.32,-9.664 c -1.325,0 -2.371,0.422 -3.133,1.263 -0.762,0.853 -1.143,2.016 -1.143,3.503 0,1.584 0.403,2.846 1.209,3.781 0.803,0.936 1.884,1.404 3.246,1.404 1.228,0 2.217,-0.462 2.979,-1.374 0.758,-0.917 1.134,-2.12 1.134,-3.605 l -0.021,-0.566 h -6.861 c 0.061,-0.937 0.274,-1.645 0.641,-2.141 0.447,-0.596 1.147,-0.901 2.107,-0.901 0.604,0 1.132,0.17 1.579,0.51 0.452,0.343 0.727,0.769 0.827,1.293 h 1.565 c -0.235,-1.031 -0.705,-1.813 -1.408,-2.352 -0.7,-0.543 -1.608,-0.815 -2.721,-0.815 m 2.645,5.69 v 0 c -0.045,0.869 -0.263,1.549 -0.649,2.032 -0.426,0.535 -1.056,0.802 -1.879,0.802 -0.828,0 -1.498,-0.302 -1.996,-0.927 -0.39,-0.485 -0.63,-1.125 -0.711,-1.907 z m 4.22,-5.438 v 9.412 h 0.753 0.756 v -1.608 c 0.138,0.249 0.274,0.483 0.431,0.687 0.599,0.806 1.335,1.208 2.209,1.208 0.143,0 0.29,-0.031 0.443,-0.076 V -1.18 l -0.32,0.007 c -0.859,0 -1.519,-0.259 -1.986,-0.769 -0.463,-0.508 -0.696,-1.239 -0.696,-2.192 v -5.044 h -0.797 z m 11.63,6.695 v 0 c -0.052,0.518 -0.26,0.922 -0.636,1.206 -0.381,0.287 -0.888,0.432 -1.522,0.432 -0.661,0 -1.159,-0.114 -1.509,-0.343 -0.34,-0.229 -0.513,-0.563 -0.513,-1.003 0,-0.34 0.121,-0.584 0.366,-0.754 0.233,-0.17 0.721,-0.343 1.432,-0.51 l 1.635,-0.386 c 0.919,-0.224 1.574,-0.534 1.965,-0.925 0.386,-0.385 0.584,-0.929 0.584,-1.63 0,-0.929 -0.34,-1.67 -1.011,-2.219 -0.67,-0.543 -1.579,-0.815 -2.722,-0.815 -1.325,0 -2.315,0.262 -2.96,0.785 -0.655,0.525 -1.015,1.346 -1.087,2.473 h 1.513 c 0.077,-0.665 0.316,-1.142 0.711,-1.442 0.397,-0.297 1.006,-0.452 1.819,-0.452 0.715,0 1.254,0.137 1.619,0.411 0.371,0.267 0.554,0.66 0.554,1.173 0,0.331 -0.117,0.579 -0.361,0.749 -0.238,0.165 -0.726,0.34 -1.456,0.513 l -1.631,0.384 c -0.889,0.213 -1.519,0.51 -1.894,0.888 -0.376,0.376 -0.563,0.902 -0.563,1.582 0,0.886 0.314,1.587 0.944,2.104 0.635,0.524 1.488,0.783 2.57,0.783 1.091,0 1.963,-0.269 2.615,-0.798 0.649,-0.533 0.995,-1.269 1.036,-2.206 z m 4.142,-6.695 v 9.412 h 0.792 0.792 v -9.412 h -0.792 z m -0.02,12.933 h 1.621 V 1.96 h -1.621 z m 7.892,-12.913 c -0.539,-0.086 -0.935,-0.122 -1.184,-0.122 -0.694,0 -1.184,0.147 -1.467,0.452 -0.285,0.305 -0.431,0.83 -0.431,1.577 v 6.208 h -1.296 v 1.277 h 1.296 v 2.627 h 1.585 V 0.234 h 1.497 v -1.277 h -1.497 v -6.206 c 0,-0.21 0.084,-0.38 0.252,-0.497 0.173,-0.127 0.397,-0.193 0.675,-0.193 h 0.57 z m 9.632,9.392 -3.575,-9.722 c -0.554,-1.452 -1.041,-2.399 -1.467,-2.841 -0.431,-0.447 -1.082,-0.668 -1.935,-0.668 -0.284,-0.007 -0.543,0.025 -0.767,0.094 v 1.475 c 0.239,-0.096 0.538,-0.137 0.905,-0.144 0.355,0 0.649,0.144 0.893,0.441 0.243,0.295 0.513,0.841 0.817,1.648 l 0.031,0.15 v -0.005 l -3.493,9.572 h 0.898 0.904 l 2.514,-7.777 2.544,7.777 h 0.863 z M -4.246,-32.557 c -1.305,0 -2.351,0.457 -3.158,1.371 -0.813,0.914 -1.213,2.118 -1.213,3.605 0,1.486 0.4,2.687 1.213,3.601 0.807,0.914 1.853,1.371 3.158,1.371 1.31,0 2.372,-0.457 3.175,-1.371 0.801,-0.914 1.203,-2.115 1.203,-3.601 0,-1.487 -0.402,-2.691 -1.203,-3.605 -0.803,-0.914 -1.865,-1.371 -3.175,-1.371 m 0,1.366 c 0.834,0 1.488,0.328 1.981,0.978 0.493,0.65 0.742,1.523 0.742,2.632 0,1.097 -0.249,1.971 -0.742,2.621 -0.493,0.654 -1.147,0.985 -1.981,0.985 -0.832,0 -1.492,-0.331 -1.985,-0.985 -0.488,-0.65 -0.731,-1.524 -0.731,-2.621 0,-1.109 0.243,-1.982 0.731,-2.632 0.493,-0.65 1.153,-0.978 1.985,-0.978 m 8.607,6.962 v 0 -8.077 H 3.574 2.782 v 8.077 h -1.3 v 1.315 h 1.3 v 1.602 c 0,0.698 0.203,1.221 0.614,1.574 0.413,0.353 1.026,0.526 1.849,0.526 l 0.686,-0.02 v -1.422 l -0.619,0.02 c -0.305,0 -0.535,-0.096 -0.702,-0.292 -0.163,-0.195 -0.249,-0.475 -0.249,-0.84 v -1.148 h 1.57 v -1.315 z m 15.589,1.097 v 0 c -0.081,0.817 -0.395,1.447 -0.964,1.891 -0.564,0.442 -1.331,0.666 -2.285,0.666 -0.99,0 -1.737,-0.191 -2.25,-0.574 -0.513,-0.381 -0.762,-0.937 -0.762,-1.668 0,-0.503 0.168,-0.874 0.508,-1.122 0.335,-0.242 1.027,-0.488 2.046,-0.727 l 2.256,-0.538 c 1.208,-0.295 2.066,-0.711 2.584,-1.28 0.519,-0.553 0.777,-1.343 0.777,-2.366 0,-1.173 -0.442,-2.103 -1.336,-2.788 -0.882,-0.691 -2.087,-1.031 -3.604,-1.031 -1.687,0 -3.007,0.399 -3.951,1.189 -0.929,0.776 -1.391,1.843 -1.391,3.196 v 0.095 h 1.605 c 0.025,-0.933 0.364,-1.656 1.019,-2.166 0.651,-0.508 1.554,-0.765 2.722,-0.765 1.072,0 1.889,0.188 2.447,0.554 0.549,0.37 0.834,0.914 0.834,1.629 0,0.615 -0.183,1.083 -0.549,1.382 -0.366,0.294 -1.096,0.571 -2.204,0.838 l -2.254,0.538 c -1.138,0.269 -1.95,0.642 -2.437,1.122 -0.483,0.485 -0.727,1.153 -0.727,2.001 0,1.234 0.421,2.214 1.26,2.945 0.838,0.721 1.975,1.082 3.407,1.082 1.452,0 2.611,-0.361 3.468,-1.087 0.864,-0.736 1.326,-1.732 1.382,-3.016 z m 11.813,-5.794 v 0 c -0.168,-1.178 -0.585,-2.082 -1.26,-2.704 -0.67,-0.622 -1.568,-0.927 -2.686,-0.927 -1.25,0 -2.245,0.447 -2.987,1.344 -0.741,0.896 -1.116,2.109 -1.116,3.627 0,1.519 0.386,2.722 1.158,3.628 0.766,0.902 1.802,1.349 3.102,1.349 1.132,0 2.031,-0.305 2.706,-0.924 0.671,-0.617 1.032,-1.466 1.083,-2.55 h -1.52 c -0.06,0.671 -0.294,1.189 -0.695,1.554 -0.406,0.368 -0.944,0.554 -1.615,0.554 -0.807,0 -1.426,-0.325 -1.884,-0.965 -0.446,-0.64 -0.681,-1.523 -0.681,-2.646 0,-1.193 0.215,-2.1 0.636,-2.701 0.422,-0.604 1.046,-0.904 1.879,-0.904 0.614,0 1.127,0.196 1.543,0.589 0.411,0.394 0.685,0.955 0.817,1.676 z m 2.106,-3.38 v 9.407 h 0.792 0.792 v -9.407 h -0.792 z m -0.025,12.936 h 1.626 v -1.797 h -1.626 z m 8.267,-13.187 c -1.331,0 -2.377,0.421 -3.133,1.262 -0.767,0.848 -1.148,2.013 -1.148,3.506 0,1.58 0.401,2.839 1.209,3.778 0.807,0.934 1.889,1.402 3.244,1.402 1.235,0 2.225,-0.457 2.981,-1.371 0.752,-0.917 1.133,-2.121 1.133,-3.606 l -0.016,-0.566 h -6.86 c 0.061,-0.936 0.275,-1.653 0.635,-2.145 0.447,-0.597 1.147,-0.894 2.107,-0.894 0.604,0 1.133,0.168 1.585,0.503 0.447,0.343 0.725,0.77 0.822,1.294 h 1.563 c -0.233,-1.028 -0.705,-1.812 -1.406,-2.353 -0.7,-0.543 -1.609,-0.81 -2.716,-0.81 m 2.64,5.685 v 0 c -0.041,0.871 -0.264,1.546 -0.645,2.034 -0.431,0.538 -1.056,0.807 -1.883,0.807 -0.833,0 -1.498,-0.304 -1.996,-0.929 -0.396,-0.488 -0.63,-1.125 -0.706,-1.912 z m 4.013,-5.434 v 9.407 h 0.74 0.762 v -1.381 l 0.345,0.467 c 0.691,0.802 1.544,1.204 2.575,1.204 1.041,0 1.838,-0.28 2.396,-0.843 0.56,-0.564 0.843,-1.366 0.843,-2.407 v -6.447 h -0.792 -0.791 v 5.914 c 0,0.828 -0.158,1.421 -0.478,1.792 -0.32,0.371 -0.838,0.551 -1.544,0.551 -0.766,0 -1.371,-0.286 -1.813,-0.868 -0.442,-0.582 -0.664,-1.358 -0.664,-2.344 v -5.045 H 49.55 Z m 17.883,3.38 v 0 c -0.163,-1.178 -0.574,-2.082 -1.249,-2.704 -0.669,-0.622 -1.574,-0.927 -2.691,-0.927 -1.245,0 -2.239,0.447 -2.986,1.344 -0.741,0.896 -1.117,2.109 -1.117,3.627 0,1.519 0.385,2.722 1.158,3.628 0.766,0.902 1.807,1.349 3.107,1.349 1.132,0 2.026,-0.305 2.702,-0.924 0.67,-0.617 1.031,-1.466 1.076,-2.55 H 65.14 c -0.062,0.671 -0.3,1.189 -0.702,1.554 -0.406,0.368 -0.944,0.554 -1.614,0.554 -0.798,0 -1.428,-0.325 -1.88,-0.965 -0.451,-0.64 -0.684,-1.523 -0.684,-2.646 0,-1.193 0.213,-2.1 0.634,-2.701 0.421,-0.604 1.051,-0.904 1.878,-0.904 0.616,0 1.133,0.196 1.544,0.589 0.416,0.394 0.691,0.955 0.824,1.676 z m 5.891,-3.631 c -1.33,0 -2.377,0.421 -3.139,1.262 -0.761,0.848 -1.142,2.013 -1.142,3.506 0,1.58 0.396,2.839 1.209,3.778 0.802,0.934 1.884,1.402 3.239,1.402 1.234,0 2.23,-0.457 2.981,-1.371 0.757,-0.917 1.132,-2.121 1.132,-3.606 l -0.015,-0.566 h -6.861 c 0.062,-0.936 0.275,-1.653 0.641,-2.145 0.441,-0.597 1.147,-0.894 2.106,-0.894 0.6,0 1.128,0.168 1.58,0.503 0.453,0.343 0.727,0.77 0.823,1.294 h 1.569 c -0.239,-1.028 -0.711,-1.812 -1.407,-2.353 -0.705,-0.543 -1.609,-0.81 -2.716,-0.81 m 2.635,5.685 v 0 c -0.04,0.871 -0.264,1.546 -0.645,2.034 -0.431,0.538 -1.055,0.807 -1.883,0.807 -0.829,0 -1.494,-0.304 -1.997,-0.929 -0.385,-0.488 -0.629,-1.125 -0.706,-1.912 z m 10.486,-5.685 c -0.919,0 -1.65,0.239 -2.188,0.734 -0.539,0.492 -0.808,1.16 -0.808,1.998 0,0.848 0.254,1.513 0.757,2.013 0.508,0.498 1.249,0.805 2.224,0.932 l 2.153,0.274 c 0.178,0.01 0.34,0.044 0.502,0.089 0.204,0.048 0.361,0.155 0.472,0.315 0.113,0.16 0.168,0.363 0.168,0.597 v 0.086 c 0,0.505 -0.193,0.899 -0.568,1.188 -0.387,0.282 -0.919,0.427 -1.596,0.427 -0.654,0 -1.162,-0.15 -1.522,-0.455 -0.371,-0.297 -0.595,-0.749 -0.665,-1.348 H 83.13 c 0.072,1.031 0.436,1.808 1.087,2.321 0.649,0.518 1.579,0.777 2.793,0.777 1.142,0 2.021,-0.252 2.615,-0.742 0.6,-0.495 0.899,-1.218 0.899,-2.168 v -5.179 c 0,-0.153 0.05,-0.282 0.147,-0.376 0.097,-0.099 0.228,-0.148 0.391,-0.148 0.05,0 0.117,0.006 0.208,0.018 0.097,0.013 0.193,0.031 0.299,0.054 v -1.143 c -0.157,-0.061 -0.314,-0.106 -0.482,-0.142 -0.177,-0.036 -0.319,-0.053 -0.437,-0.053 -0.598,0 -1.036,0.165 -1.304,0.495 -0.173,0.213 -0.305,0.518 -0.376,0.919 -0.117,-0.148 -0.254,-0.289 -0.407,-0.424 -0.792,-0.709 -1.762,-1.059 -2.904,-1.059 m 3.28,3.978 v 1.018 c -0.293,-0.136 -0.615,-0.233 -0.969,-0.286 l -1.458,-0.214 c -0.761,-0.104 -1.316,-0.281 -1.665,-0.533 -0.356,-0.251 -0.528,-0.591 -0.528,-1.023 0,-0.528 0.141,-0.934 0.431,-1.218 0.284,-0.285 0.69,-0.427 1.219,-0.427 0.832,0 1.534,0.223 2.112,0.68 0.391,0.315 0.654,0.673 0.782,1.072 0.021,0.081 0.04,0.203 0.051,0.365 0.015,0.168 0.025,0.358 0.025,0.566 m 4.723,-3.727 v 9.407 h 0.746 0.756 v -1.381 l 0.352,0.467 c 0.69,0.802 1.544,1.204 2.574,1.204 1.036,0 1.833,-0.28 2.396,-0.843 0.56,-0.564 0.838,-1.366 0.838,-2.407 v -6.447 h -0.787 -0.792 v 5.914 c 0,0.828 -0.163,1.421 -0.482,1.792 -0.315,0.371 -0.832,0.551 -1.543,0.551 -0.762,0 -1.366,-0.286 -1.809,-0.868 -0.447,-0.582 -0.665,-1.358 -0.665,-2.344 v -5.045 h -0.793 z m 14.056,-0.251 c -1.254,0 -2.255,0.467 -3.006,1.412 -0.742,0.939 -1.112,2.211 -1.112,3.808 0,1.417 0.36,2.557 1.081,3.428 0.721,0.868 1.66,1.3 2.818,1.3 1.158,0 2.067,-0.49 2.742,-1.468 l 0.122,-0.175 v 4.864 h 0.792 0.792 v -12.918 h -0.725 -0.743 v 1.283 l -0.202,-0.287 c -0.65,-0.83 -1.504,-1.247 -2.559,-1.247 m 0.091,8.526 c -0.883,0 -1.529,-0.279 -1.941,-0.848 -0.405,-0.569 -0.613,-1.47 -0.613,-2.702 0,-1.167 0.224,-2.056 0.66,-2.691 0.446,-0.624 1.076,-0.937 1.894,-0.937 0.766,0 1.385,0.287 1.858,0.866 0.463,0.576 0.696,1.346 0.696,2.298 0,1.282 -0.217,2.275 -0.66,2.968 -0.442,0.698 -1.077,1.046 -1.894,1.046 M -4.621,-55.44 v 11.374 h -4.372 v 0.78 0.766 H 1.498 v -0.766 -0.78 H -2.875 V -55.44 h -0.868 z m 11.837,-0.249 c -1.33,0 -2.371,0.42 -3.139,1.267 -0.756,0.848 -1.142,2.013 -1.142,3.5 0,1.582 0.406,2.844 1.208,3.778 0.808,0.938 1.889,1.405 3.25,1.405 1.223,0 2.219,-0.462 2.976,-1.37 0.756,-0.92 1.137,-2.124 1.137,-3.61 L 11.48,-51.285 H 4.62 c 0.067,-0.937 0.285,-1.645 0.645,-2.139 0.442,-0.597 1.142,-0.897 2.108,-0.897 0.599,0 1.128,0.168 1.573,0.506 0.453,0.342 0.728,0.768 0.828,1.292 h 1.564 c -0.233,-1.031 -0.7,-1.813 -1.406,-2.352 -0.695,-0.543 -1.605,-0.814 -2.716,-0.814 M 9.856,-50 v 0 c -0.041,0.874 -0.259,1.545 -0.65,2.032 -0.422,0.537 -1.052,0.807 -1.879,0.807 -0.833,0 -1.498,-0.307 -1.995,-0.932 C 4.94,-48.578 4.707,-49.217 4.62,-50 Z m 11.424,-2.051 v 0 c -0.166,-1.188 -0.583,-2.09 -1.258,-2.707 -0.67,-0.624 -1.57,-0.931 -2.692,-0.931 -1.238,0 -2.234,0.452 -2.975,1.348 -0.751,0.894 -1.117,2.105 -1.117,3.622 0,1.519 0.385,2.728 1.152,3.628 0.772,0.9 1.803,1.352 3.102,1.352 1.134,0 2.032,-0.313 2.713,-0.924 0.665,-0.615 1.025,-1.468 1.075,-2.55 h -1.512 c -0.067,0.671 -0.305,1.189 -0.706,1.555 -0.401,0.37 -0.94,0.553 -1.615,0.553 -0.798,0 -1.422,-0.323 -1.874,-0.964 -0.456,-0.641 -0.679,-1.524 -0.679,-2.65 0,-1.192 0.207,-2.094 0.629,-2.698 0.421,-0.599 1.05,-0.904 1.878,-0.904 0.62,0 1.127,0.199 1.544,0.589 0.417,0.391 0.686,0.953 0.823,1.681 z m 2.053,-3.389 v 12.92 h 0.792 0.792 v -4.773 l 0.274,0.351 c 0.681,0.801 1.543,1.203 2.57,1.203 1.036,0 1.838,-0.282 2.397,-0.845 0.558,-0.564 0.843,-1.364 0.843,-2.403 v -6.453 h -0.793 -0.792 v 6.062 c 0,0.78 -0.152,1.338 -0.447,1.684 -0.3,0.341 -0.787,0.518 -1.457,0.518 -0.797,0 -1.427,-0.29 -1.895,-0.868 -0.467,-0.579 -0.7,-1.361 -0.7,-2.352 v -5.044 h -0.792 z m 10.48,0 v 9.414 h 0.747 0.761 v -1.383 l 0.346,0.467 c 0.686,0.801 1.544,1.203 2.569,1.203 1.041,0 1.839,-0.282 2.397,-0.845 0.563,-0.564 0.843,-1.364 0.843,-2.403 v -6.453 h -0.792 -0.792 v 5.92 c 0,0.826 -0.158,1.425 -0.477,1.791 -0.32,0.368 -0.834,0.553 -1.545,0.553 -0.766,0 -1.365,-0.29 -1.807,-0.868 -0.447,-0.579 -0.67,-1.361 -0.67,-2.352 v -5.044 h -0.788 z m 14.304,-0.249 c -1.304,0 -2.349,0.459 -3.163,1.374 -0.802,0.917 -1.208,2.117 -1.208,3.602 0,1.485 0.406,2.689 1.208,3.606 0.814,0.911 1.859,1.368 3.163,1.368 1.316,0 2.366,-0.457 3.175,-1.368 0.802,-0.917 1.203,-2.121 1.203,-3.606 0,-1.485 -0.401,-2.685 -1.203,-3.602 -0.809,-0.915 -1.859,-1.374 -3.175,-1.374 m 0,1.368 c 0.828,0 1.489,0.325 1.986,0.975 0.489,0.65 0.736,1.529 0.736,2.633 0,1.102 -0.247,1.975 -0.736,2.631 -0.497,0.649 -1.158,0.977 -1.986,0.977 -0.832,0 -1.492,-0.328 -1.979,-0.977 -0.488,-0.656 -0.732,-1.529 -0.732,-2.631 0,-1.104 0.244,-1.983 0.732,-2.633 0.487,-0.65 1.147,-0.975 1.979,-0.975 m 6.684,-1.119 v 12.92 h 0.792 0.787 v -12.92 h -0.787 z m 8.262,-0.249 c -1.301,0 -2.352,0.459 -3.159,1.374 -0.808,0.917 -1.209,2.117 -1.209,3.602 0,1.485 0.401,2.689 1.209,3.606 0.807,0.911 1.858,1.368 3.159,1.368 1.314,0 2.371,-0.457 3.172,-1.368 0.803,-0.917 1.204,-2.121 1.204,-3.606 0,-1.485 -0.401,-2.685 -1.204,-3.602 -0.801,-0.915 -1.858,-1.374 -3.172,-1.374 m 0,1.368 c 0.832,0 1.493,0.325 1.985,0.975 0.492,0.65 0.736,1.529 0.736,2.633 0,1.102 -0.244,1.975 -0.736,2.631 -0.492,0.649 -1.153,0.977 -1.985,0.977 -0.834,0 -1.489,-0.328 -1.982,-0.977 -0.487,-0.656 -0.73,-1.529 -0.73,-2.631 0,-1.104 0.243,-1.983 0.73,-2.633 0.493,-0.65 1.148,-0.975 1.982,-0.975 m 10.094,-3.783 c 0.909,0 1.6,0.29 2.072,0.858 0.472,0.577 0.71,1.407 0.71,2.503 v 0.31 l -0.004,-0.01 c -0.656,-0.83 -1.503,-1.246 -2.549,-1.246 -1.26,0 -2.26,0.469 -3.006,1.412 -0.742,0.941 -1.112,2.215 -1.112,3.815 0,1.415 0.36,2.555 1.086,3.422 0.742,0.867 1.702,1.301 2.879,1.301 1.133,0 2.032,-0.488 2.692,-1.465 l 0.112,-0.17 v 1.348 h 1.487 v -8.721 c -0.005,-1.588 -0.366,-2.763 -1.072,-3.526 -0.705,-0.762 -1.792,-1.141 -3.264,-1.141 -1.067,0 -1.91,0.246 -2.54,0.742 -0.625,0.487 -1.004,1.198 -1.131,2.135 h 1.619 c 0.092,-0.496 0.32,-0.884 0.671,-1.151 0.355,-0.277 0.801,-0.416 1.35,-0.416 m 0.31,10.928 c -0.889,0 -1.529,-0.285 -1.935,-0.848 -0.406,-0.565 -0.609,-1.463 -0.609,-2.689 0,-1.155 0.218,-2.047 0.66,-2.671 0.442,-0.627 1.072,-0.937 1.884,-0.937 0.762,0 1.381,0.289 1.848,0.863 0.473,0.576 0.701,1.334 0.701,2.281 0,1.332 -0.208,2.333 -0.634,3 -0.422,0.665 -1.062,1.001 -1.915,1.001 m 14.345,1.15 -3.575,-9.722 c -0.553,-1.449 -1.041,-2.399 -1.467,-2.841 -0.432,-0.449 -1.082,-0.668 -1.94,-0.668 -0.279,-0.007 -0.539,0.024 -0.762,0.094 v 1.475 c 0.24,-0.091 0.538,-0.136 0.904,-0.145 0.355,0 0.65,0.15 0.894,0.442 0.244,0.298 0.513,0.843 0.818,1.648 l 0.03,0.15 v -0.006 l -3.493,9.573 h 0.898 0.903 l 2.514,-7.772 2.545,7.772 h 0.862 z"
             style="fill:#09393c;fill-opacity:1;fill-rule:nonzero;stroke:none"
             id="path48" />
        </g>
      </g>
    </g>
  </g>
</svg>
